<?xml version="1.0" standalone="no"?>
<!DOCTYPE svg PUBLIC "-//W3C//DTD SVG 20010904//EN"
 "http://www.w3.org/TR/2001/REC-SVG-20010904/DTD/svg10.dtd">
<svg version="1.0" xmlns="http://www.w3.org/2000/svg"
 width="245.000000pt" height="245.000000pt" viewBox="0 0 245.000000 245.000000"
 preserveAspectRatio="xMidYMid meet">
<metadata>
Created by potrace 1.11, written by Peter Selinger 2001-2013
</metadata>
<g transform="translate(0.000000,245.000000) scale(0.100000,-0.100000)"
fill="#000000" stroke="none">
<path d="M1792 2033 c-6 -3 -9 -10 -5 -16 4 -6 0 -8 -10 -4 -10 3 -17 3 -17
-1 0 -4 -10 -12 -22 -17 -12 -6 -36 -31 -52 -57 -31 -46 -61 -66 -69 -44 -3 6
-16 12 -31 14 -22 1 -56 14 -110 40 -5 3 -5 -2 -1 -9 5 -8 0 -6 -12 4 -11 9
-26 17 -35 17 -8 0 -27 9 -41 20 -18 14 -28 17 -33 9 -5 -8 -9 -8 -14 1 -5 9
-44 14 -121 15 -63 2 -148 4 -189 5 -41 1 -97 -3 -125 -9 -27 -6 -60 -12 -72
-15 -12 -3 -31 -10 -42 -16 -12 -6 -21 -9 -21 -6 0 3 -26 -8 -57 -24 -54 -26
-59 -27 -75 -12 -35 35 -45 37 -133 36 -87 -1 -154 -19 -170 -44 -4 -6 -9 -8
-13 -6 -4 2 -18 -11 -32 -30 -14 -18 -30 -34 -37 -34 -6 0 -15 -9 -18 -20 -3
-11 -13 -20 -21 -20 -8 0 -13 -3 -13 -7 1 -5 -4 -24 -12 -43 -7 -19 -12 -38
-11 -42 1 -5 -2 -8 -7 -8 -4 0 -16 -21 -26 -47 -10 -27 -22 -51 -27 -54 -5 -3
-11 -32 -14 -64 -2 -33 -8 -62 -13 -65 -5 -3 -11 -23 -14 -45 -13 -84 -19
-115 -26 -115 -3 0 -7 -20 -7 -45 -1 -25 -6 -50 -11 -57 -14 -18 -24 -50 -14
-44 4 3 8 -8 9 -24 0 -17 -3 -30 -7 -30 -11 0 -8 -53 3 -62 6 -4 4 -22 -4 -47
-7 -22 -10 -50 -7 -62 3 -12 2 -31 -4 -41 -6 -11 -6 -18 0 -18 5 0 12 6 14 13
3 6 4 1 3 -13 -1 -14 -6 -31 -10 -38 -4 -7 -3 -12 3 -12 6 0 8 -7 4 -15 -3 -9
3 -25 12 -35 12 -13 14 -20 5 -20 -8 0 -10 -6 -5 -17 4 -10 8 -24 8 -30 0 -7
4 -13 8 -13 4 0 5 -17 3 -38 -3 -20 -2 -32 3 -27 4 6 15 11 23 13 12 3 12 1 3
-9 -9 -9 -8 -15 3 -27 9 -8 13 -23 11 -33 -3 -12 0 -19 10 -19 8 0 12 -4 9 -8
-9 -15 68 -49 116 -51 43 -2 51 1 92 39 35 32 50 56 62 99 9 31 19 63 22 71 3
8 4 25 3 38 -3 26 5 28 25 7 9 -8 12 -15 7 -15 -4 0 3 -7 15 -16 12 -8 20 -19
17 -24 -3 -4 2 -11 11 -14 8 -3 12 -10 9 -16 -3 -5 -2 -10 3 -10 5 0 29 -19
54 -42 25 -24 69 -58 98 -75 54 -34 203 -86 280 -98 25 -4 56 -9 70 -12 14 -2
109 -9 213 -15 218 -14 348 -4 372 28 9 13 14 14 15 6 0 -9 21 -2 64 21 35 20
67 33 71 29 3 -3 3 1 -1 11 -4 13 -2 16 9 11 14 -5 42 13 94 64 13 12 28 22
33 22 6 0 10 4 10 8 0 5 18 28 40 52 22 24 40 47 40 52 0 4 4 8 9 8 5 0 13 9
16 20 8 26 35 26 35 1 0 -11 11 -28 25 -39 16 -13 24 -28 23 -43 -2 -18 1 -23
15 -21 11 2 21 -7 27 -24 9 -23 12 -25 27 -13 12 10 15 10 9 2 -4 -8 -2 -13 4
-13 6 0 8 -5 5 -10 -6 -10 7 -18 37 -24 7 -2 27 -9 43 -15 43 -19 155 -11 155
10 0 4 12 20 26 35 25 24 27 32 25 98 -1 39 -3 85 -5 101 -2 17 -4 47 -5 68
-1 21 -5 36 -10 33 -8 -5 -16 32 -27 121 -1 12 -6 28 -10 35 -9 13 -13 27 -19
63 -2 11 -4 22 -5 25 -1 3 -2 8 -1 13 0 4 -4 7 -10 7 -6 0 -9 9 -6 20 3 11 1
23 -4 26 -5 3 -9 11 -8 17 3 13 -19 96 -29 111 -3 6 -7 19 -8 30 -6 63 -51
196 -66 196 -5 0 -7 8 -4 18 4 10 -3 37 -14 60 -11 22 -20 47 -20 55 0 8 -7
20 -15 27 -8 7 -12 16 -10 21 7 10 -29 82 -63 127 -13 17 -22 32 -19 32 3 0
-4 12 -16 26 -52 62 -78 85 -89 78 -7 -4 -8 -3 -4 4 5 9 -3 11 -29 7 -23 -2
-33 0 -29 6 6 10 -95 11 -124 2z m-702 -76 c8 -3 52 -11 98 -17 45 -7 82 -16
82 -21 0 -5 8 -9 18 -9 10 0 24 -6 30 -12 10 -10 17 -10 32 0 21 13 70 6 70
-9 0 -5 9 -9 20 -9 11 0 43 -10 72 -23 29 -13 67 -27 83 -31 37 -9 115 -48
115 -58 0 -5 8 -8 18 -8 9 0 29 -11 44 -25 15 -14 32 -25 38 -25 5 0 10 -4 10
-9 0 -6 14 -25 30 -43 17 -18 30 -42 30 -53 0 -11 12 -34 28 -51 15 -16 26
-38 24 -47 -2 -9 1 -17 7 -17 6 0 11 -11 11 -25 0 -14 5 -25 10 -25 6 0 10
-18 10 -39 0 -22 5 -43 10 -46 6 -3 10 -19 10 -36 0 -16 5 -29 10 -29 6 0 10
-9 10 -20 0 -11 -4 -20 -10 -20 -13 0 -13 -27 0 -32 14 -4 11 -198 -2 -198 -5
0 -8 -7 -8 -15 0 -9 6 -12 18 -9 15 5 15 4 2 -8 -8 -7 -26 -44 -39 -83 -14
-38 -35 -81 -48 -95 -13 -14 -34 -42 -45 -62 -12 -21 -28 -38 -35 -38 -7 0
-13 -4 -13 -9 0 -5 -9 -13 -20 -16 -11 -3 -20 -11 -20 -16 0 -14 -50 -56 -82
-70 -16 -6 -28 -15 -28 -19 0 -11 -107 -60 -130 -60 -11 0 -20 -6 -20 -12 0
-17 -31 -20 -232 -22 -95 -1 -168 2 -168 7 0 5 -9 7 -21 4 -64 -17 -374 75
-439 130 -15 12 -35 23 -44 23 -9 0 -16 3 -16 8 0 9 -70 103 -94 128 -9 8 -16
22 -16 29 0 9 -6 12 -17 8 -11 -4 -14 -3 -9 6 9 13 -11 71 -25 71 -4 0 -15 26
-24 58 -9 31 -21 62 -27 69 -25 31 -28 314 -3 385 8 24 15 50 15 59 0 25 83
209 108 239 53 65 118 130 129 130 7 0 13 4 13 10 0 5 17 17 38 25 69 28 112
50 112 57 0 4 7 5 15 2 8 -4 22 -1 30 6 8 7 29 15 46 19 36 7 167 6 189 -2z
m960 -1111 c0 -3 -4 -8 -10 -11 -5 -3 -10 -1 -10 4 0 6 5 11 10 11 6 0 10 -2
10 -4z"/>
<path d="M765 1518 c-27 -5 -60 -12 -72 -14 -20 -4 -46 -26 -79 -66 -24 -31
-42 -115 -39 -190 3 -68 7 -83 33 -118 38 -52 69 -76 123 -94 49 -18 169 -22
169 -6 0 6 9 10 19 10 11 0 31 14 44 30 14 17 30 30 36 30 6 0 11 7 11 15 0 8
4 15 8 15 13 0 42 92 42 134 0 64 -30 143 -71 184 -53 54 -80 72 -109 72 -14
0 -34 2 -45 4 -11 2 -42 -1 -70 -6z m-25 -198 c10 0 21 -4 25 -9 13 -22 133 9
175 44 22 19 60 1 61 -27 0 -13 2 -36 3 -51 1 -16 -2 -31 -6 -33 -5 -3 -6 -10
-3 -15 4 -5 2 -9 -3 -9 -5 0 -12 -14 -16 -32 -4 -20 -24 -49 -52 -76 -46 -43
-47 -43 -102 -37 -31 3 -64 12 -72 20 -15 14 -19 15 -45 15 -8 0 -15 5 -15 11
0 6 -12 26 -26 44 -31 42 -44 137 -24 185 l12 30 35 -30 c18 -17 42 -30 53
-30z"/>
<path d="M1501 1503 c-8 -3 -24 -16 -35 -28 -55 -60 -76 -86 -76 -94 0 -5 -7
-14 -15 -21 -17 -14 -22 -154 -6 -164 4 -3 6 -17 3 -31 -2 -15 0 -25 7 -25 6
0 11 -6 11 -12 1 -22 53 -65 112 -92 57 -26 121 -33 188 -20 37 8 130 94 130
121 0 10 6 28 14 39 36 51 24 188 -21 240 -13 15 -23 31 -23 36 0 4 -7 8 -16
8 -9 0 -22 7 -28 15 -18 25 -201 45 -245 28z m264 -181 c2 -9 7 -28 11 -41 5
-17 4 -22 -4 -17 -17 10 -15 0 4 -18 14 -14 13 -18 -6 -38 -11 -12 -18 -28
-16 -34 2 -6 -13 -30 -35 -53 -40 -41 -60 -47 -134 -42 -37 3 -114 43 -108 57
2 7 -4 17 -15 23 -21 11 -30 39 -38 111 -7 67 1 72 71 48 87 -30 133 -26 190
18 19 14 35 31 35 37 0 15 40 -30 45 -51z"/>
<path d="M1112 1030 c-18 -4 -42 -5 -53 -3 -14 4 -19 0 -19 -16 0 -11 4 -21 9
-21 4 0 6 -11 3 -25 -2 -14 0 -25 6 -25 5 0 13 -11 16 -24 11 -43 109 -76 122
-41 4 8 12 15 18 15 17 0 36 44 36 80 0 23 -5 30 -20 30 -10 0 -23 6 -27 14
-11 19 -50 26 -91 16z"/>
<path d="M1006 803 c-15 -16 -3 -34 33 -50 31 -13 41 -24 45 -48 8 -40 38 -65
80 -65 37 0 54 14 65 57 6 22 14 29 37 31 47 4 104 35 104 55 0 17 -6 18 -47
13 -67 -8 -203 -7 -222 3 -20 10 -86 13 -95 4z m183 -79 c1 -1 0 -7 -3 -12 -8
-14 -56 -2 -56 14 0 11 7 13 28 8 15 -4 29 -8 31 -10z"/>
</g>
</svg>
